<svg xmlns="http://www.w3.org/2000/svg">
  <symbol id="katakana-project" viewBox="0 0 5133 3193">
    <g transform="translate(354 241)">
      <text font-family="Aharoni,Aharoni_MSFontService,sans-serif" font-weight="700" font-size="248" transform="matrix(1 0 0 1 -205.333 54)">Luminai</text>
      <text font-family="Aharoni,Aharoni_MSFontService,sans-serif" font-weight="700" font-size="248" transform="matrix(1 0 0 1 775.5 54)">Luminai</text>
      <text font-family="Aharoni,Aharoni_MSFontService,sans-serif" font-weight="700" font-size="248" transform="matrix(1 0 0 1 1756.33 54)">Luminai</text>
      <text font-family="Aharoni,Aharoni_MSFontService,sans-serif" font-weight="700" font-size="248" transform="matrix(1 0 0 1 2737.17 54)">Luminai</text>
      <text font-family="Aharoni,Aharoni_MSFontService,sans-serif" font-weight="700" font-size="248" transform="matrix(1 0 0 1 3718 54)">Luminai</text>

      <text font-family="Aharoni,Aharoni_MSFontService,sans-serif" font-weight="700" font-size="248" transform="matrix(1 0 0 1 -205.333 321)">Luminai</text>
      <text font-family="Aharoni,Aharoni_MSFontService,sans-serif" font-weight="700" font-size="248" transform="matrix(1 0 0 1 775.5 321)">Luminai</text>
      <text font-family="Aharoni,Aharoni_MSFontService,sans-serif" font-weight="700" font-size="248" transform="matrix(1 0 0 1 1756.33 321)">Luminai</text>
      <text font-family="Aharoni,Aharoni_MSFontService,sans-serif" font-weight="700" font-size="248" transform="matrix(1 0 0 1 2737.17 321)">Luminai</text>
      <text font-family="Aharoni,Aharoni_MSFontService,sans-serif" font-weight="700" font-size="248" transform="matrix(1 0 0 1 3718 321)">Luminai</text>

      <text font-family="Aharoni,Aharoni_MSFontService,sans-serif" font-weight="700" font-size="248" transform="matrix(1 0 0 1 -205.333 588)">Luminai</text>
      <text font-family="Aharoni,Aharoni_MSFontService,sans-serif" font-weight="700" font-size="248" transform="matrix(1 0 0 1 706.75 588)">Luminai</text>
      <text font-family="Aharoni,Aharoni_MSFontService,sans-serif" font-weight="700" font-size="248" transform="matrix(1 0 0 1 1687.58 588)">Luminai</text>
      <text font-family="Aharoni,Aharoni_MSFontService,sans-serif" font-weight="700" font-size="248" transform="matrix(1 0 0 1 2668.42 588)">Luminai</text>
      <text font-family="Aharoni,Aharoni_MSFontService,sans-serif" font-weight="700" font-size="248" transform="matrix(1 0 0 1 3649.25 588)">Luminai</text>

      <text font-family="Aharoni,Aharoni_MSFontService,sans-serif" font-weight="700" font-size="248" transform="matrix(1 0 0 1 -205.333 856)">Luminai</text>
      <text font-family="Aharoni,Aharoni_MSFontService,sans-serif" font-weight="700" font-size="248" transform="matrix(1 0 0 1 775.5 856)">Luminai</text>
      <text font-family="Aharoni,Aharoni_MSFontService,sans-serif" font-weight="700" font-size="248" transform="matrix(1 0 0 1 1756.33 856)">Luminai</text>
      <text font-family="Aharoni,Aharoni_MSFontService,sans-serif" font-weight="700" font-size="248" transform="matrix(1 0 0 1 2737.17 856)">Luminai</text>
      <text font-family="Aharoni,Aharoni_MSFontService,sans-serif" font-weight="700" font-size="248" transform="matrix(1 0 0 1 3718 856)">Luminai</text>

      <text font-family="Aharoni,Aharoni_MSFontService,sans-serif" font-weight="700" font-size="248" transform="matrix(1 0 0 1 -205.333 1123)">Luminai</text>
      <text font-family="Aharoni,Aharoni_MSFontService,sans-serif" font-weight="700" font-size="248" transform="matrix(1 0 0 1 775.5 1123)">Luminai</text>
      <text font-family="Aharoni,Aharoni_MSFontService,sans-serif" font-weight="700" font-size="248" transform="matrix(1 0 0 1 1756.33 1123)">Luminai</text>
      <text font-family="Aharoni,Aharoni_MSFontService,sans-serif" font-weight="700" font-size="248" transform="matrix(1 0 0 1 2737.17 1123)">Luminai</text>
      <text font-family="Aharoni,Aharoni_MSFontService,sans-serif" font-weight="700" font-size="248" transform="matrix(1 0 0 1 3718 1123)">Luminai</text>

      <text font-family="Aharoni,Aharoni_MSFontService,sans-serif" font-weight="700" font-size="248" transform="matrix(1 0 0 1 -205.333 1390)">Luminai</text>
      <text font-family="Aharoni,Aharoni_MSFontService,sans-serif" font-weight="700" font-size="248" transform="matrix(1 0 0 1 775.5 1390)">Luminai</text>
      <text font-family="Aharoni,Aharoni_MSFontService,sans-serif" font-weight="700" font-size="248" transform="matrix(1 0 0 1 1756.33 1390)">Luminai</text>
      <text font-family="Aharoni,Aharoni_MSFontService,sans-serif" font-weight="700" font-size="248" transform="matrix(1 0 0 1 2737.17 1390)">Luminai</text>
      <text font-family="Aharoni,Aharoni_MSFontService,sans-serif" font-weight="700" font-size="248" transform="matrix(1 0 0 1 3718 1390)">Luminai</text>

      <text font-family="Aharoni,Aharoni_MSFontService,sans-serif" font-weight="700" font-size="248" transform="matrix(1 0 0 1 -205.333 1657)">Luminai</text>
      <text font-family="Aharoni,Aharoni_MSFontService,sans-serif" font-weight="700" font-size="248" transform="matrix(1 0 0 1 775.5 1657)">Luminai</text>
      <text font-family="Aharoni,Aharoni_MSFontService,sans-serif" font-weight="700" font-size="248" transform="matrix(1 0 0 1 1756.33 1657)">Luminai</text>
      <text font-family="Aharoni,Aharoni_MSFontService,sans-serif" font-weight="700" font-size="248" transform="matrix(1 0 0 1 2737.17 1657)">Luminai</text>
      <text font-family="Aharoni,Aharoni_MSFontService,sans-serif" font-weight="700" font-size="248" transform="matrix(1 0 0 1 3718 1657)">Luminai</text>

      <text font-family="Aharoni,Aharoni_MSFontService,sans-serif" font-weight="700" font-size="248" transform="matrix(1 0 0 1 -205.333 1925)">Luminai</text>
      <text font-family="Aharoni,Aharoni_MSFontService,sans-serif" font-weight="700" font-size="248" transform="matrix(1 0 0 1 775.5 1925)">Luminai</text>
      <text font-family="Aharoni,Aharoni_MSFontService,sans-serif" font-weight="700" font-size="248" transform="matrix(1 0 0 1 1756.33 1925)">Luminai</text>
      <text font-family="Aharoni,Aharoni_MSFontService,sans-serif" font-weight="700" font-size="248" transform="matrix(1 0 0 1 2737.17 1925)">Luminai</text>
      <text font-family="Aharoni,Aharoni_MSFontService,sans-serif" font-weight="700" font-size="248" transform="matrix(1 0 0 1 3718 1925)">Luminai</text>

      <text font-family="Aharoni,Aharoni_MSFontService,sans-serif" font-weight="700" font-size="248" transform="matrix(1 0 0 1 -205.333 2192)">Luminai</text>
      <text font-family="Aharoni,Aharoni_MSFontService,sans-serif" font-weight="700" font-size="248" transform="matrix(1 0 0 1 775.5 2192)">Luminai</text>
      <text font-family="Aharoni,Aharoni_MSFontService,sans-serif" font-weight="700" font-size="248" transform="matrix(1 0 0 1 1756.33 2192)">Luminai</text>
      <text font-family="Aharoni,Aharoni_MSFontService,sans-serif" font-weight="700" font-size="248" transform="matrix(1 0 0 1 2737.17 2192)">Luminai</text>
      <text font-family="Aharoni,Aharoni_MSFontService,sans-serif" font-weight="700" font-size="248" transform="matrix(1 0 0 1 3718 2192)">Luminai</text>

      <text font-family="Aharoni,Aharoni_MSFontService,sans-serif" font-weight="700" font-size="248" transform="matrix(1 0 0 1 -205.333 2459)">Luminai</text>
      <text font-family="Aharoni,Aharoni_MSFontService,sans-serif" font-weight="700" font-size="248" transform="matrix(1 0 0 1 775.5 2459)">Luminai</text>
      <text font-family="Aharoni,Aharoni_MSFontService,sans-serif" font-weight="700" font-size="248" transform="matrix(1 0 0 1 1756.33 2459)">Luminai</text>
      <text font-family="Aharoni,Aharoni_MSFontService,sans-serif" font-weight="700" font-size="248" transform="matrix(1 0 0 1 2737.17 2459)">Luminai</text>
      <text font-family="Aharoni,Aharoni_MSFontService,sans-serif" font-weight="700" font-size="248" transform="matrix(1 0 0 1 3718 2459)">Luminai</text>

      <text font-family="Aharoni,Aharoni_MSFontService,sans-serif" font-weight="700" font-size="248" transform="matrix(1 0 0 1 -205.333 2727)">Luminai</text>
      <text font-family="Aharoni,Aharoni_MSFontService,sans-serif" font-weight="700" font-size="248" transform="matrix(1 0 0 1 775.5 2727)">Luminai</text>
      <text font-family="Aharoni,Aharoni_MSFontService,sans-serif" font-weight="700" font-size="248" transform="matrix(1 0 0 1 1756.33 2727)">Luminai</text>
      <text font-family="Aharoni,Aharoni_MSFontService,sans-serif" font-weight="700" font-size="248" transform="matrix(1 0 0 1 2737.17 2727)">Luminai</text>
      <text font-family="Aharoni,Aharoni_MSFontService,sans-serif" font-weight="700" font-size="248" transform="matrix(1 0 0 1 3718 2727)">Luminai</text>
    </g>
  </symbol>
</svg>
